<svg version="1.2" xmlns="http://www.w3.org/2000/svg" viewBox="0 0 239 140" width="239" height="140">
	<title>Ristorante (3)-svg</title>
	<defs>
		<clipPath clipPathUnits="userSpaceOnUse" id="cp1">
			<path d="m54 7h37v37h-37z"/>
		</clipPath>
		<clipPath clipPathUnits="userSpaceOnUse" id="cp2">
			<path d="m44.55 20.45l33.59-21.27 16.85 26.62-33.59 21.26z"/>
		</clipPath>
		<clipPath clipPathUnits="userSpaceOnUse" id="cp3">
			<path d="m44.55 20.45l33.59-21.27 16.85 26.62-33.59 21.26z"/>
		</clipPath>
	</defs>
	<style>
		.s0 { fill: #ffffff } 
	</style>
	<g id="Layer">
		<g id="Layer">
			<g id="Layer">
				<path id="Layer" class="s0" d="m89.4 31.5q4.5 2.9 6.6 7.4 2.1 4.4 1.3 9.4-0.9 6-4.4 10.8-3.4 4.7-7.8 8.5-3.6 3.1-7.5 5.8-3.9 2.7-8.1 5.1-5.3 3.1-10.9 6.2-2.4 1.3-4.8 2.6-0.1 0.1-0.2 0.2-0.4 0.2-0.7 0.3-1.4 0.5-1.9 1.3-0.5 0.9-0.5 2.1 0 1.1 0.1 2.4 0 0.6 0.7 0.8 0.6 0.2 1.3 0.4 3.1 0.7 6.3 1.3 5.2 1.1 10.4 2.1 5.8 1.2 11.5 2.5 3.5 0.7 7.1 1.5 1 0.2 1.9 0.4 1.1 0.2 2.2 0.4 0.8 0.1 1.6 0.5 0.2 0.1 0.4 0.3 0.2 0.3 0.1 0.6 0 0.3-0.2 0.3-0.2 0.1-0.3 0.1-0.7 0-1.4-0.1-3-0.5-6-1-4.9-0.7-9.9-1.8-8-1.7-16-3.3-1.7-0.4-3.4-0.7-2.6-0.6-5.2-1-1.2-0.3-1.2 1 0 0.8 0 1.6 0 0.4 0 0.9-0.1 13.8-0.3 27.6 0 0.2 0 0.3 0 0.6 0 1.1-0.1 1.3-1.5 1.1-1.3-0.2-1.5-1.4-0.1-0.7 0-1.3 0-0.1 0-0.1-0.1-7.3-0.2-14.4 0-7.1 0-14.5 0-0.3 0-0.7-0.1-0.6 0-1.2 0-1.1-1-1.6-0.1 0-0.3 0-0.8-0.4-1.5-0.9-2.3-1.4-1.1-3.5 0.9-1.5 2.4-2.3 0.9-0.5 1.2-1.2 0.3-0.8 0.3-1.9 0-12 0-24 0-2.9 0-5.9 0-0.1 0-0.3 0-1.1 0-2.1 0.2-1.3 1.8-1.1 1.6 0.2 1.6 1.6 0 0.9 0 1.7 0 0.2 0 0.5 0.1 6.6 0.1 13.1 0 6.5 0 13 0 0 0 0.1 0 1.1 0 2.1 0.1 1 1.1 0.7 0.4-0.2 0.7-0.4 0.1 0 0.1 0 5.8-3.1 11.5-6.4 5.8-3.4 11.2-7.2 3.8-2.6 7.2-5.6 3.4-3 6.1-6.7 3.1-3.9 4.5-8.8 0.8-3.2 0.4-6.8-0.7-5.4-5-9.1-2.1-1.7-4.4-2.8-8.7-4-17.4-4.1-8.6-0.1-16.6 2.8-8.1 2.9-14.7 7.9-6.7 5-11.4 11.2-1.9 2.1-3.2 4.6-1 1.6-1.7 3.2-0.7 1.7-1 3.6 0 0.5-0.3 0.7-0.3 0.2-0.8 0.1-0.5 0-1-0.1-1.1-0.4-1.2-1.6 0-1.5 0.5-2.8 1.9-5.2 5.4-9.2 5.4-6.3 12.7-11.4 7.3-5.1 15.9-8 8.6-3 17.8-2.9 9.1 0.1 18.2 4 2.2 1 4.3 2.4z"/>
			</g>
		</g>
	</g>
	<g id="Layer">
		<g id="Layer">
			<g id="Layer">
				<path id="Layer" class="s0" d="m92.4 86.1q-0.7 1.3-2.3 3-1.6 1.7-3.6 2.1-2.1 0.5-3.9-1.4-0.7-0.8-1.1-1.9-0.3-1-0.2-2.1 0-0.2 0-0.7 0-1 0.1-2.5 0.1-1.4 0.4-2.6 0.4-1.2 1.1-1.4 2-0.5 2.2 1.4 0 0.7-0.1 1.3 0 0.3 0 0.6-0.1 0.9-0.1 1.8 0 0.7-0.1 1.4 0 3.1 1.4 3.7 1.5 0.6 3.3-1.2 1.9-1.9 2.4-3.1 0.6-1.2 0.9-0.5 0.2 0.7-0.4 2.1zm-7.6-11.9q-0.3 0.2-0.7 0.3-0.4 0.1-0.7-0.1-0.2-0.2-0.3-0.5 0-0.3 0-0.7 0-0.1 0-0.2 0-0.4 0.2-0.8 0.4-1 1.8-0.9 0.5 0.1 0.7 0.4 0.3 0.3 0.1 0.7-0.3 1.1-1.1 1.8z"/>
			</g>
		</g>
	</g>
	<g id="Layer">
		<g id="Layer">
			<g id="Layer">
				<path id="Layer" fill-rule="evenodd" class="s0" d="m104.8 83.1q0 0.4-2.1 1.7-2.1 1.3-3.1 1.9-1 0.6-1 0.8 0.2 0.4 0.5 1.4 0.2 1 0.1 2.2 0 1.2-0.7 2.1-0.7 0.9-2.4 1.1-1.7 0.1-3-0.5-1.2-0.6-1.6-1.8-0.3-1.2 0.8-2.8 0.8-0.9 1.8-1.6 0.4-0.2 0.8-0.5-1.3-1.4-2.4-2.8-1.2-1.5-1.5-2.6-0.3-1.3 0.4-2.5 0.8-1.1 2.8-1.3 0.9-0.1 1.7 0.1 0.9 0.1 1.6 0.8 0.1 0.1 0.2 0.3 0.1 0.2-0.1 0.5-0.2 0.4-0.7 0.4-0.3 0-0.7-0.1-0.3-0.1-0.6-0.3-0.2-0.1-0.3-0.2-0.7-0.2-1 0.1-0.3 0.3-0.3 0.9 0 1.1 0.9 2.4 0.8 1.2 1.7 2.3 0.3 0.3 0.5 0.7 0.3 0.2 1.3-0.1 1-0.3 3.7-1.7 2.7-1.4 2.7-0.9zm-9.6 9.6q0.6 0 0.8-0.7 0.2-0.6 0.1-1.4 0-0.8 0-1.2-0.1-0.2-0.3-0.3-0.3 0-0.4 0.1-0.8 0.5-1.1 1.4-0.3 0.8 0.1 1.5 0.1 0.2 0.3 0.4 0.2 0.2 0.5 0.2z"/>
			</g>
		</g>
	</g>
	<g id="Layer">
		<g id="Layer">
			<g id="Layer">
				<path id="Layer" class="s0" d="m119.1 84.4q1.2-1.1 1-0.5-0.1 0.5-1.3 2-1.1 1.5-2.8 3.3-1.7 1.7-3.6 3-1.9 1.3-3.6 1.4-2.1 0-3.3-1.3-1.3-1.2-1.8-3.2-0.5-2.1-0.5-4.4 0.1-2.7 0.2-5.3 0.1-1.3 0.1-2.6 0.1-2.1 0.2-4.3 0-0.6-0.3-1.1-0.2-0.4-0.9-0.5-0.7 0-1.9 0-1 0-1.7 0-1-0.1-1.3-0.6-0.3-0.4 0.5-0.8 0.6-0.2 1.5-0.2 0.8-0.1 1.7 0 0.5 0 0.8 0 1.3 0 1.6-0.4 0.3-0.4 0.3-1.6 0.1-1.2 0.2-2.5 0-0.6 0.1-1.3 0-1 0.5-1.8 0.6-0.7 1.4-0.6 0.8 0.2 0.9 1 0 1.2 0 2.5 0.1 0.7 0 1.4 0 0.8 0.1 1.6-0.1 1.1 0.2 1.4 0.3 0.3 1.5 0.3 1.9 0 3.8 0 0.9 0 5.1-0.1 4.3-0.2 4.6 0.6 0.4 0.8-5.4 1-3.4 0.2-5.3 0.2-1.3-0.1-2.3-0.1-1.7 0-2.1 0.6-0.4 0.6-0.3 2.4-0.1 1.5-0.2 3.7-0.3 4.4-0.3 9 0.1 3.2 1.2 4.2 1 0.9 2.7 0.3 1.6-0.6 3.5-2.1 2-1.5 3.9-3.2 0.4-0.6 0.9-1 0.2-0.2 0.4-0.4z"/>
			</g>
		</g>
	</g>
	<g id="Layer">
		<g id="Layer">
			<g id="Layer">
				<path id="Layer" fill-rule="evenodd" class="s0" d="m135.3 83q0.4-0.3 0.4 0.8 0 1.1-2 3.1-2.1 2-4.2 1.9-0.5-0.1-0.8 0.1-0.4 0.1-0.6 0.5-0.2 0.4-0.6 0.7 0 0 0 0-1.4 1.5-3.1 1.9-1.8 0.5-3.5-0.3-1.6-0.7-2.3-2.7-0.5-1.9-0.1-3.7 0.4-1.6 1.2-3 1-1.9 2.6-2.7 1.6-0.8 3.6-0.9 2.9-0.1 3.7 2.8 0.5 1.7 0.2 3.5 0 0.3-0.1 0.8-0.1 0.3-0.2 0.5 0 1 0.9 0.9 2.5-0.4 4.9-4.2zm-11.7 7.3q1.6-0.7 2.2-2.4-2.6-1.6-3.4-4.6-0.8 1.4-1 3.3-0.2 1.9 0.4 3.1 0.5 1.3 1.8 0.6zm2.9-4.6q0.4-0.6 0.5-1.5 0.1-0.9-0.1-1.7-0.1-0.9-0.4-1.4-0.3-0.5-0.6-0.3-0.6 0.5-0.7 1.5 0 1 0.3 1.9 0.4 1 1 1.5z"/>
			</g>
		</g>
	</g>
	<g id="Layer">
		<g id="Layer">
			<g id="Layer">
				<path id="Layer" class="s0" d="m148.5 84.5q0.4-0.9 0.6-0.8 0.1 0.1 0.1 0.7-0.1 0.6-0.3 1.4-0.3 1.1-1 2.7-0.7 1.6-1.5 2.8-1.2 1.8-3.1 2.7-1.8 0.9-3.3 0.4-1.5-0.4-1.7-2.8-0.1-2 0.3-4.3 0.1-1 0.3-2 0-0.3-0.2-0.5-0.2-0.2-0.4-0.1-0.2 0-0.5 0-1.1 0.2-2.4-0.1-1.4-0.4-1.7-1.4-0.2-1 0.1-2.7 0.1-1.2 0.9-1.8 0.7-0.6 1.7-0.4 1.3 0.1 1.3 1 0 0.9-0.5 2-0.4 0.9-0.5 1.5 0 0.5 1 0.4 0.3-0.1 0.6-0.2 0.4-0.1 0.8-0.2 0.5-0.2 1.3-0.1 1 0 1.3 0.9 0.3 0.8 0.3 2-0.1 1.3-0.3 2.6-0.2 1.6-0.2 2.7 0 1.2 0.7 1.4 0.8 0.2 2.6-1.6 1.7-1.9 3.7-6.2z"/>
			</g>
		</g>
	</g>
	<g id="Layer">
		<g id="Layer">
			<g id="Layer">
				<path id="Layer" fill-rule="evenodd" class="s0" d="m172.3 83.7q-0.6 1.8-2.4 4.2-1.7 2.3-4.3 3-2.7 0.6-4.6-0.2-1.9-0.9-2.1-4.6-2.1 4.3-4.1 5.4-2 1.2-4.1 0.9-2.4-0.4-3.2-1.8-0.9-1.5-0.6-3.5 0.3-1.9 1.2-3.7 0.7-1.3 1.9-2.5 1.3-1.1 2.7-1.8 1.6-0.8 3.4-0.8 1.7 0.1 3.7 1.2 0 0 0-0.1 0-0.2 0.1-0.5 0.1-0.3 0.3-0.5 0.7-0.4 1.5-0.4 0.9 0 1.4 0.8 0.1 1.2-0.2 3-0.7 3.8 0 5.5 0.7 1.7 2.5 1.6 1.8-0.1 4.6-3.6 2.9-3.4 2.3-1.6zm-21.2 6.1q1 0.7 2.3-0.2 1.3-0.9 2.4-2.6 1.2-1.6 2-3.3 0.8-1.6 0.9-2.4-2.4-1.3-4.1-0.5-1.7 0.9-2.7 2.8-1.1 1.9-1.2 3.7-0.2 1.9 0.4 2.5z"/>
			</g>
		</g>
	</g>
	<g id="Layer">
		<g id="Layer">
			<g id="Layer">
				<path id="Layer" class="s0" d="m188.5 86.5q1.7-2.6 2-3.3 0.3-0.7 0.5 0 0.1 0.8-1.1 3.5-1.2 2.7-3.1 4.2-1.8 1.5-3.4 1.1-1.6-0.4-2.3-2.2-0.7-1.9-0.4-4.7 0 0 0-0.2 0.1-0.5 0.2-1.4 0.1-0.9 0.1-1.9 0.1-1 0-1.6-0.1-0.7-0.6-0.5-1.1 0.6-2.2 2.5-1.1 1.8-2 3.8-0.9 1.9-1.2 3.2-0.2 0.4-0.3 0.8-0.2 0.6-0.5 1.1-0.6 1.6-2.1 1.2-0.9-0.1-1-1-0.1-0.7-0.1-1.3 0-0.4 0-0.7-0.1-4.7-0.3-9.6 0.1-0.5 0.5-0.8 0.5-0.2 1.1-0.2 0.5 0 0.9 0.3 0.4 0.2 0.5 1.1 0.1 0.2 0.1 0.5 0 0.2 0 0.3 0.1 0.7 0.1 1.1 0 0.8 0.1 1 0.1 0.3 0.4 0 0.3-0.3 1-1.4 1.2-1.8 3.1-3.1 1.6-1.2 3.6-1 1.7 0.1 2.3 1.7 0.2 0.9 0.2 1.7 0 0.8-0.1 1.6-0.1 0.9-0.1 1.8-0.1 0.3-0.1 0.6-0.3 3 0.1 4.1 0.5 1 1.5 0.7 1-0.4 2.6-3z"/>
			</g>
		</g>
	</g>
	<g id="Layer">
		<g id="Layer">
			<g id="Layer">
				<path id="Layer" class="s0" d="m205.4 84.4q1.2-1.1 1-0.5-0.1 0.5-1.3 2-1.1 1.5-2.8 3.3-1.7 1.7-3.6 3-1.9 1.3-3.6 1.4-2.1 0-3.3-1.3-1.3-1.2-1.8-3.2-0.5-2.1-0.5-4.4 0.1-2.7 0.2-5.3 0.1-1.3 0.1-2.6 0.1-2.1 0.2-4.3 0-0.6-0.3-1.1-0.2-0.4-0.9-0.5-0.7 0-1.9 0-1 0-1.7 0-0.9-0.1-1.3-0.6-0.3-0.4 0.5-0.8 0.7-0.2 1.5-0.2 0.8-0.1 1.7 0 0.5 0 0.9 0 1.2 0 1.5-0.4 0.3-0.4 0.3-1.6 0.1-1.2 0.2-2.5 0-0.6 0.1-1.3 0-1 0.5-1.8 0.6-0.7 1.4-0.6 0.8 0.2 0.9 1 0 1.2 0 2.5 0.1 0.7 0 1.4 0 0.8 0.1 1.6-0.1 1.1 0.2 1.4 0.3 0.3 1.5 0.3 1.9 0 3.8 0 0.9 0 5.1-0.1 4.3-0.2 4.6 0.6 0.4 0.8-5.4 1-3.4 0.2-5.3 0.2-1.3-0.1-2.3-0.1-1.7 0-2.1 0.6-0.4 0.6-0.3 2.4-0.1 1.5-0.2 3.7-0.3 4.4-0.3 9 0.2 3.2 1.2 4.2 1 0.9 2.7 0.3 1.6-0.6 3.6-2.1 1.9-1.5 3.8-3.2 0.4-0.6 1-1 0.1-0.2 0.3-0.4z"/>
			</g>
		</g>
	</g>
	<g id="Layer">
		<g id="Layer">
			<g id="Layer">
				<path id="Layer" fill-rule="evenodd" class="s0" d="m225.9 84.4q0.4-0.3 0.9-0.4 0.4-0.2 0.6 0 0.1 0.2-0.4 0.8-1.6 1.8-3.9 3.3-2.2 1.6-4.6 2.6-1.8 0.9-3.9 1.4-2 0.5-4 0.2-2-0.3-3.7-1.8-2.5-2.3-2.1-5.7 0.4-2.6 2.1-4.5 1.7-1.9 4.3-2.5 2.2-0.5 4.3-0.1 1 0.1 1.8 0.6 0.8 0.6 0.9 1.4 0 0.8-0.6 1.5-1.4 1.2-3.2 1.4-2 0.4-4.1 0.5-0.9 0-1.4 0.4-0.3 0.4-0.4 1.4-0.3 2.7 1.7 4.4 1.3 1 3.1 0.8 1.8-0.1 3.8-1 2.1-0.8 4-1.9 2-1.1 3.6-2.1 0.6-0.4 1.2-0.7zm-15-3.8q0 0 0 0-0.1 0.1-0.3 0.2-0.1 0.1-0.2 0.3-0.2 0.1-0.2 0.1 0.1 0.2 0.8 0.1 0.8-0.1 1.6-0.3 0.9-0.1 1.5-0.5 0.6-0.3 0.4-0.7-0.1-0.1-0.3-0.2-0.2-0.1-0.4-0.2-0.8 0-1.5 0.4-0.7 0.3-1.4 0.8z"/>
			</g>
		</g>
	</g>
	<g id="Clip-Path" clip-path="url(#cp1)">
		<g id="Layer">
			<g id="Clip-Path" clip-path="url(#cp2)">
				<g id="Layer">
					<g id="Clip-Path" clip-path="url(#cp3)">
						<g id="Layer">
							<path id="Layer" fill-rule="evenodd" class="s0" d="m86.9 13.1c1.8 3.2 1.1 7.3-2.2 9.2q-0.5 0.3-1.1 0.6 0 0 0 0c2.1 2.1 4.2 4 6.6 5.8q0.1 0 0 0.1-3.1 0.6-6.2 2-8.6 3.7-15.1 10.2-1.1 1.2-2.3 2.7 0 0.1 0 0c-0.5-2.8-1.4-5.6-2.4-8.3q0 0 0 0 0 0 0 0c-1.4 1.6-3.4 2.4-5.5 1.9-4.1-1-5.5-5.9-3.3-9.2q0 0 0-0.1c-1.9-1.9-1.7-4.5 1-5.6q0 0 0 0c-2.2-1.6-2.7-4.3-1.5-6.7 1.2-2.4 4.1-3.8 6.7-3.8q0.5-0.1 0.9-0.1 0 0 0 0c1-3.3 4.7-5.2 7.9-4.2 1.6 0.5 2.9 1.5 3.9 2.8q0 0 0.1 0c4.1-3.4 9.9-1.7 12.5 2.7zm-12.1-2.1q0 0 0 0 1.8 2.7 2 5.9 0 0 0 0 0 0 0 0c-1.2-3.5-4-7.3-8.1-7.6-2-0.2-4 0.8-5 2.6q0 0 0 0 0 0 0 0c3.3 0.5 6.1 2.6 7.7 5.4q0 0 0 0 0 0 0 0c-2.3-2.1-5.1-3.5-8.1-3.8-2.5-0.2-5.4 0.6-6.8 2.7q-0.8 1-0.8 2.3c0 2.3 2.2 3.5 4.1 3.7 1.6 0.2 3.2-0.1 4.7-0.6q0.2 0 0 0.1c-1.9 1.7-4.3 2.3-6.8 1.5q0-0.1 0 0c-0.8 0.5-1.4 1-1.5 2-0.4 1.6 1 2.9 2.4 3.7 1.6 0.8 3.6 1.1 5.4 1q0 0 0 0 0 0 0 0c-2.6 1-5.6 0.5-7.9-1.2q0 0 0 0c-0.6 1.8-0.6 3.6 0.4 5.2 1.2 2.1 3.7 2.8 5.9 1.8 0.8-0.4 1.6-1 2.2-1.7 0.8-1 1.5-1.8 2.3-2.6q5-5.1 11.7-7.6c2.3-0.9 4.8-1.1 6.6-3.2 1.5-1.9 1.5-4.6 0.3-6.7-2.1-3.7-7-5.3-10.7-2.9z"/>
						</g>
					</g>
				</g>
			</g>
		</g>
	</g>
	<g id="Layer">
		<g id="Layer">
			<g id="Layer">
				<path id="Layer" class="s0" d="m108.2 114.1h-1.4v-8.4h1.4z"/>
			</g>
		</g>
	</g>
	<g id="Layer">
		<g id="Layer">
			<g id="Layer">
				<path id="Layer" class="s0" d="m113.6 112.8h3.6v1.3h-5v-8.4h1.4z"/>
			</g>
		</g>
	</g>
	<g id="Layer">
		<g id="Layer">
			<g id="Layer">
			</g>
		</g>
	</g>
	<g id="Layer">
		<g id="Layer">
			<g id="Layer">
				<path id="Layer" class="s0" d="m128.9 105.6q0.9 0 1.7 0.4 0.9 0.3 1.5 0.9l-0.8 1.1q-0.5-0.5-1.1-0.8-0.6-0.3-1.3-0.3-1.2 0-2.1 0.9-0.9 0.8-0.9 2.1 0 1.2 0.9 2.1 0.9 0.8 2.1 0.8 1.3 0 2.4-1l0.8 1q-0.6 0.6-1.5 1-0.9 0.3-1.7 0.3-1.9 0-3.2-1.2-1.2-1.2-1.2-3 0-1.8 1.3-3 1.2-1.3 3.1-1.3z"/>
			</g>
		</g>
	</g>
	<g id="Layer">
		<g id="Layer">
			<g id="Layer">
				<path id="Layer" fill-rule="evenodd" class="s0" d="m140.7 112.2h-4.2l-0.8 1.9h-1.5l3.7-8.4h1.5l3.7 8.4h-1.6zm-0.5-1.3l-1.6-3.7-1.6 3.7z"/>
			</g>
		</g>
	</g>
	<g id="Layer">
		<g id="Layer">
			<g id="Layer">
				<path id="Layer" fill-rule="evenodd" class="s0" d="m145.9 105.7h3.4q1.6 0 2.4 0.7 0.9 0.8 0.9 2.1 0 1.5-0.9 2.3-0.8 0.7-2.4 0.7h-2v2.6h-1.4zm1.4 1.3v3.3h1.9q2 0 2-1.7 0-1.6-2-1.6z"/>
			</g>
		</g>
	</g>
	<g id="Layer">
		<g id="Layer">
			<g id="Layer">
				<path id="Layer" fill-rule="evenodd" class="s0" d="m156.4 106.9q1.2-1.3 3.1-1.3 1.9 0 3.2 1.3 1.3 1.2 1.3 3 0 1.8-1.3 3-1.3 1.2-3.2 1.2-1.9 0-3.1-1.2-1.3-1.2-1.3-3 0-1.8 1.3-3zm3.1 0q-1.2 0-2.1 0.9-0.9 0.8-0.9 2.1 0 1.2 0.9 2.1 0.9 0.9 2.1 0.9 1.3 0 2.2-0.9 0.8-0.9 0.8-2.1 0-1.3-0.8-2.1-0.9-0.9-2.2-0.9z"/>
			</g>
		</g>
	</g>
</svg>